 <svg  version="1.0" xmlns="http://www.w3.org/2000/svg"  width="300.000000pt" height="308.000000pt" viewBox="0 0 300.000000 308.000000"  preserveAspectRatio="xMidYMid meet">  <g transform="translate(0.000000,308.000000) scale(0.050000,-0.050000)" fill="#000000" stroke="none"> <path d="M3150 5989 c-33 -17 -92 -62 -131 -101 -39 -38 -129 -107 -200 -153 -114 -75 -139 -104 -211 -243 -94 -179 -113 -163 -84 68 45 359 46 330 -14 377 -186 146 -317 19 -337 -325 -15 -250 -17 -254 -80 -195 -26 25 -79 53 -118 64 -38 11 -100 42 -137 69 -213 156 -356 169 -493 44 -86 -78 -25 -274 84 -274 17 0 31 -10 31 -23 0 -14 -26 -18 -75 -10 -305 48 -399 36 -442 -59 -60 -131 -5 -248 116 -248 88 0 141 -16 141 -42 0 -10 -72 -18 -161 -18 -144 0 -166 -5 -210 -49 -57 -57 -68 -190 -19 -231 44 -36 37 -54 -25 -66 -77 -16 -303 -186 -325 -245 -34 -90 42 -200 153 -221 85 -16 85 -40 -1 -76 -37 -15 -84 -53 -105 -83 -20 -30 -89 -106 -152 -168 -225 -223 -233 -408 -21 -482 79 -27 133 -2 176 82 43 83 50 74 36 -45 -9 -75 -34 -134 -89 -213 -116 -165 -82 -343 64 -343 34 0 40 -8 28 -35 -100 -235 -86 -294 78 -344 l96 -29 -12 -84 c-14 -91 19 -198 75 -245 24 -20 27 -38 13 -76 -43 -112 18 -219 138 -244 65 -13 67 -15 70 -128 5 -177 134 -273 278 -207 25 12 35 8 35 -14 0 -59 99 -114 202 -114 128 0 167 52 147 194 -16 119 16 84 121 -131 36 -73 103 -181 149 -240 47 -58 81 -108 78 -110 -4 -3 -34 -13 -67 -24 -50 -16 -67 -40 -102 -139 -23 -66 -57 -153 -75 -194 -18 -41 -33 -92 -33 -112 0 -32 -29 -44 -165 -73 -269 -57 -408 -171 -447 -367 l-13 -64 110 0 c103 0 109 3 101 46 -10 53 97 172 158 177 46 3 54 5 126 37 33 14 73 29 90 32 16 3 32 15 36 27 8 24 77 29 87 5 13 -30 129 -98 247 -145 66 -26 129 -54 140 -62 28 -19 282 -77 341 -77 27 0 49 -9 49 -20 0 -11 12 -20 28 -20 33 0 57 102 30 129 -11 12 -18 2 -18 -27 0 -55 -27 -51 -330 43 -370 116 -511 231 -412 338 21 22 44 70 51 107 12 64 71 141 71 93 0 -13 31 -43 69 -68 38 -25 73 -61 78 -80 6 -24 20 -31 44 -22 22 9 31 6 23 -7 -16 -25 32 -69 125 -116 38 -19 81 -48 96 -63 16 -15 35 -27 43 -27 9 0 26 -23 39 -52 18 -39 30 -47 49 -31 27 22 188 -54 172 -81 -4 -8 22 -36 58 -63 44 -32 57 -52 40 -59 -14 -6 45 -12 131 -12 127 -2 166 5 207 37 33 27 78 39 139 38 50 -1 100 9 113 23 17 18 17 22 1 13 -12 -7 -32 -1 -44 14 -17 20 -2 35 68 69 49 24 87 51 84 59 -9 27 79 125 113 125 32 0 45 49 17 65 -8 5 -2 5 13 1 15 -4 45 11 66 33 21 23 31 41 23 41 -8 0 -4 11 10 25 20 20 28 20 40 0 12 -20 23 -19 52 2 43 32 23 81 -27 68 -28 -8 -33 2 -25 51 6 41 -2 68 -25 85 -29 21 -29 26 -3 36 17 6 31 24 31 40 0 16 22 33 49 38 48 9 68 -12 83 -82 7 -37 28 -55 28 -25 0 13 9 19 21 11 14 -8 13 -22 -4 -43 -21 -25 -19 -36 15 -64 23 -18 48 -58 56 -89 7 -31 36 -76 64 -100 55 -47 37 -153 -25 -153 -15 0 -27 -7 -27 -16 0 -32 -435 -204 -515 -204 -23 0 -45 -12 -51 -28 -7 -18 -30 -24 -67 -17 -45 8 -52 5 -33 -15 15 -17 42 -20 80 -9 97 27 206 49 261 54 14 1 25 8 25 15 0 7 52 29 115 49 63 19 175 71 248 113 162 94 144 94 197 4 23 -40 49 -65 57 -55 19 27 103 35 103 10 0 -11 7 -20 15 -19 62 10 185 -96 185 -159 0 -38 11 -43 100 -43 100 0 101 1 88 55 -56 231 -275 385 -547 385 -30 0 -41 13 -41 48 0 26 -22 96 -50 155 -27 59 -50 126 -50 149 0 47 -61 109 -156 157 l-66 33 76 86 c74 84 117 159 208 362 l45 100 13 -96 c22 -171 274 -200 310 -36 11 54 18 58 79 48 170 -27 301 79 287 231 l-10 99 66 -10 c132 -22 202 113 138 267 -39 94 -38 101 15 114 64 16 94 76 114 229 9 74 32 167 49 208 18 41 32 92 32 114 0 22 18 45 39 52 107 34 164 246 92 341 -17 22 -30 77 -30 123 -1 46 -10 108 -22 138 -29 78 13 120 86 87 130 -60 332 139 215 211 -11 7 -34 44 -50 82 -16 38 -80 123 -142 188 -109 114 -112 121 -89 177 29 70 0 139 -96 231 l-61 58 64 32 c130 66 134 151 10 285 -44 48 -98 107 -120 131 -21 25 -72 50 -112 57 -150 23 -163 30 -176 79 -7 27 -2 77 9 111 55 156 -59 266 -284 273 -369 11 -469 34 -364 82 123 56 136 173 34 287 -76 85 -214 98 -424 40 -82 -23 -230 -51 -329 -63 -184 -22 -295 -65 -526 -202 -58 -35 -110 -58 -116 -53 -11 12 249 204 350 259 234 128 10 408 -228 285z m135 -82 c-37 -15 -30 -47 10 -47 40 0 -148 -180 -244 -233 -32 -18 -71 -44 -86 -59 -15 -15 -39 -34 -53 -43 -77 -45 -237 -335 -297 -535 -41 -139 -83 -133 -91 13 -10 201 187 538 393 672 59 38 141 99 182 136 71 65 147 107 191 106 11 0 9 -5 -5 -10z m-877 -77 c7 -28 -2 -142 -20 -254 -33 -210 -30 -270 21 -452 42 -151 21 -197 -89 -191 -143 8 -209 42 -281 142 -90 125 -117 150 -205 192 -42 20 -105 60 -140 90 -35 30 -104 72 -154 93 -125 52 -132 61 -71 101 66 44 169 18 278 -68 39 -32 101 -68 137 -82 136 -50 202 -92 252 -160 121 -166 244 -267 244 -201 0 11 -8 20 -18 20 -59 0 -128 260 -105 399 13 76 23 180 23 231 0 148 99 256 128 140z m1883 -179 c134 -56 75 -104 -163 -132 -98 -11 -263 -29 -368 -41 -172 -18 -449 -118 -500 -180 -5 -7 -39 -27 -75 -46 -36 -18 -135 -105 -219 -193 -278 -287 -338 -162 -80 167 43 56 110 100 250 165 106 50 206 102 223 118 53 47 448 123 727 141 54 3 102 12 109 18 16 16 17 16 96 -17z m-63 -269 c12 -19 -80 -42 -167 -42 -78 0 -356 -73 -456 -120 -46 -22 -91 -40 -100 -41 -26 0 -155 -115 -144 -127 6 -6 79 23 162 65 309 155 697 201 1130 135 201 -31 245 -44 253 -74 16 -60 -27 -78 -127 -52 -55 14 -252 23 -514 23 -234 -1 -425 6 -425 15 0 9 -11 16 -24 16 -59 0 46 -64 150 -91 84 -22 133 -25 198 -10 231 54 707 -15 743 -107 26 -69 -17 -79 -220 -55 -446 52 -479 51 -397 -17 39 -32 39 -138 1 -152 -16 -7 -82 20 -145 58 -220 133 -355 161 -551 116 -56 -13 -106 -8 -197 20 -67 21 -179 38 -250 38 -142 0 -151 10 -77 97 69 83 210 157 389 207 82 22 209 57 280 77 137 38 469 53 488 21z m-2569 -225 c130 -40 389 -197 408 -247 44 -115 -134 -107 -398 19 -170 81 -250 108 -356 120 -193 22 -322 101 -240 148 56 31 443 4 586 -40z m1760 -303 c248 -122 569 -606 508 -765 -20 -52 -147 -18 -147 41 0 243 -380 590 -646 590 -154 0 -381 -180 -345 -274 13 -34 -44 -140 -83 -155 -80 -30 -88 124 -14 285 136 299 444 417 727 278z m-707 -32 c-18 -19 -32 -47 -32 -61 0 -15 -22 -47 -50 -73 -46 -42 -50 -43 -50 -8 0 21 9 43 20 50 30 18 24 86 -9 104 -18 10 5 17 62 20 85 3 89 1 59 -32z m1748 8 c10 6 23 2 30 -10 7 -11 3 -20 -9 -20 -11 0 -21 -19 -21 -41 0 -23 -9 -36 -20 -29 -11 7 -28 -8 -37 -32 -11 -30 -21 -37 -31 -21 -8 13 2 59 22 101 20 43 39 70 43 60 3 -10 14 -14 23 -8z m-3080 -30 c94 -23 211 -54 260 -69 50 -16 133 -40 185 -53 103 -25 107 -31 72 -107 -19 -41 -38 -51 -95 -51 -183 0 -602 -277 -602 -398 0 -39 -86 -48 -112 -13 -36 49 -17 86 109 215 116 120 130 172 25 94 -44 -32 -91 -45 -167 -47 -62 -2 -143 -21 -199 -47 -52 -24 -107 -44 -124 -44 -16 0 -35 -9 -42 -20 -7 -11 -30 -20 -51 -20 -64 0 -46 68 36 134 151 121 196 135 445 136 231 2 373 41 354 98 -9 27 -222 69 -358 71 -161 2 -220 27 -198 85 30 82 208 96 462 36z m1053 -10 c56 -37 127 -187 126 -267 l0 -53 -45 60 c-111 151 -193 182 -313 120 -121 -62 -151 -144 -191 -513 -27 -245 -136 -243 -146 3 -18 450 307 821 569 650z m2616 19 c21 -16 60 -29 86 -29 46 0 265 -184 265 -223 0 -41 -80 -10 -190 73 -66 49 -136 90 -155 90 -48 0 -195 61 -195 81 0 43 134 50 189 8z m-993 -47 c360 -183 830 -646 722 -713 -23 -15 -178 48 -178 72 0 21 -310 320 -364 350 -102 57 -369 185 -416 199 -61 19 -160 86 -160 110 0 62 261 50 396 -18z m839 -104 c196 -101 505 -413 505 -510 0 -59 -47 -28 -360 234 -164 137 -299 215 -374 216 -159 2 -282 88 -152 108 170 25 261 14 381 -48z m-1505 -120 c39 -24 84 -66 99 -95 l27 -53 -119 7 c-70 4 -130 -3 -146 -17 -33 -27 -270 -20 -303 10 -23 20 1 71 71 155 45 53 275 49 371 -7z m-975 -3 c-3 -13 14 -27 38 -31 44 -6 84 -64 45 -64 -11 0 -15 -9 -8 -20 7 -11 -5 -20 -25 -20 -21 0 -44 -6 -52 -13 -7 -8 -42 -15 -78 -17 -36 -2 -94 -10 -130 -18 -52 -12 -65 -9 -65 16 0 52 90 97 161 82 63 -14 63 -14 24 25 -22 22 -52 46 -67 52 -16 7 2 10 38 6 36 -3 70 1 76 10 16 26 49 20 43 -8z m2338 -74 c314 -147 927 -729 927 -880 0 -60 -90 -7 -202 118 -137 153 -181 168 -107 35 26 -47 50 -117 53 -155 9 -110 -43 -85 -115 57 -35 69 -79 141 -96 161 -18 20 -33 45 -33 56 0 26 -461 498 -590 604 -135 111 -69 113 163 4z m-801 23 c35 -19 102 -55 150 -82 218 -118 478 -341 478 -409 0 -109 -132 -100 -240 17 -53 58 -158 131 -290 201 -66 36 -210 243 -210 303 0 16 57 0 112 -30z m-2128 -54 c39 -40 -19 -117 -141 -189 -194 -114 -367 -311 -532 -608 -97 -174 -231 -232 -231 -100 0 27 154 324 179 347 6 6 37 49 69 96 70 102 280 302 363 344 32 17 70 45 84 64 31 41 181 74 209 46z m755 -250 c90 -15 177 -16 290 -2 89 10 299 14 468 8 l306 -12 48 -107 c82 -186 289 -192 289 -8 0 173 305 -114 329 -310 8 -61 35 -158 60 -215 36 -81 49 -155 59 -332 l11 -229 -56 54 c-31 29 -92 74 -137 98 -45 25 -125 75 -179 112 l-97 67 -260 -11 c-307 -13 -408 -40 -446 -119 -42 -86 -18 -121 71 -107 68 11 70 10 25 -10 -66 -31 -633 -31 -700 -1 -43 19 -38 21 36 10 l87 -12 -7 66 c-19 197 -627 258 -858 86 -62 -46 -143 -96 -180 -111 -37 -16 -80 -44 -95 -62 -97 -116 -92 246 7 518 39 107 70 208 70 226 0 48 63 203 83 203 9 0 17 -13 17 -30 0 -52 76 -110 143 -110 101 0 137 47 137 182 0 189 104 223 479 158z m-1586 -11 c17 -44 -9 -61 -51 -35 -27 17 -43 17 -59 1 -17 -17 -23 -15 -23 10 0 52 114 73 133 24z m774 16 c8 -14 -64 -181 -106 -245 -36 -54 -144 -288 -176 -380 -21 -61 -32 -169 -33 -335 -2 -207 -7 -245 -33 -245 -17 0 -41 -10 -54 -23 -124 -124 -63 575 74 850 107 215 295 432 328 378z m-747 -144 c0 -47 -64 -111 -160 -161 -39 -20 -160 -127 -269 -238 -209 -212 -271 -245 -271 -144 0 44 32 94 125 198 69 77 139 158 155 180 83 111 420 244 420 165z m3843 -115 c182 -91 402 -606 259 -606 -49 0 -86 46 -169 213 -79 157 -175 307 -224 347 -119 99 -32 129 134 46z m-321 -117 c114 -59 177 -297 178 -674 0 -187 -9 -217 -51 -177 -10 10 -41 22 -69 25 -50 7 -50 9 -63 261 -8 140 -19 263 -26 275 -20 32 -67 298 -55 310 15 16 19 15 86 -20z m753 -306 c75 -143 105 -223 105 -279 0 -44 14 -111 30 -151 41 -98 39 -158 -4 -149 -63 12 -142 201 -177 422 -11 70 -127 350 -151 365 -45 28 -12 47 37 21 39 -20 88 -90 160 -229z m-4355 205 c0 -17 -17 -36 -37 -42 -23 -5 -47 -41 -61 -89 -14 -43 -37 -84 -52 -90 -15 -6 -23 -22 -18 -36 6 -16 -9 -30 -40 -35 -46 -9 -49 -5 -41 59 10 73 30 98 158 200 95 75 91 74 91 33z m3940 -233 c1 -14 18 -47 40 -75 22 -27 39 -65 40 -83 0 -19 10 -37 23 -41 40 -14 2 -116 -43 -116 -22 0 -40 7 -40 15 0 9 -20 24 -45 35 -45 20 -53 78 -32 245 6 47 57 64 57 20z m-3954 -75 c10 -40 -55 -145 -240 -385 -87 -113 -150 -145 -172 -87 -14 36 5 112 28 112 10 0 30 29 45 65 28 65 279 335 311 335 10 0 22 -18 28 -40z m286 -141 c2 -149 -2 -179 -26 -170 -15 6 -23 3 -18 -6 6 -9 -20 -47 -58 -83 l-69 -67 8 63 c12 91 28 111 68 81 28 -21 29 -21 8 3 -30 33 -33 100 -5 100 11 0 20 17 20 39 0 21 10 45 22 52 14 9 18 45 12 92 -7 51 -2 77 13 77 15 0 24 -59 25 -181z m-102 129 c-1 -10 -78 -175 -173 -368 -94 -192 -186 -384 -204 -425 -37 -87 -86 -97 -113 -25 -16 42 -2 86 80 261 55 115 100 215 100 222 0 18 224 335 248 352 27 18 62 8 62 -17z m4073 -278 c63 -75 122 -282 110 -385 -16 -145 -96 -453 -121 -469 -50 -33 -71 63 -34 154 15 35 20 94 13 140 -7 44 -20 161 -30 260 -10 99 -32 213 -49 254 -68 159 -5 185 111 46z m-2734 -43 c231 -43 351 -124 351 -235 0 -32 -8 -26 -35 28 -60 121 -128 138 -465 118 -334 -20 -383 -36 -462 -144 -73 -101 -73 -109 14 -211 199 -232 536 -263 794 -72 125 92 132 116 68 236 -30 55 -49 104 -45 109 23 23 71 -20 71 -62 0 -108 113 -140 190 -53 50 54 138 50 198 -11 79 -79 159 -46 175 70 4 28 22 53 42 56 30 6 25 -13 -30 -114 l-65 -120 70 -61 c289 -250 666 -227 885 55 l55 71 -48 81 c-81 139 -167 165 -572 173 -223 4 -92 36 210 52 345 17 500 -36 514 -178 4 -48 21 -72 63 -92 72 -34 69 -77 -47 -608 -103 -467 -180 -709 -220 -685 -8 5 -40 -29 -71 -75 -31 -46 -59 -74 -64 -61 -4 13 -72 -41 -150 -120 -109 -110 -145 -136 -150 -109 -11 48 -23 44 -95 -25 -116 -112 -411 -188 -489 -125 -70 57 -44 195 40 212 126 25 48 45 -171 45 -126 -1 -230 -7 -230 -15 0 -17 54 -37 100 -37 27 0 40 -21 51 -84 28 -166 -100 -193 -390 -82 -72 27 -147 51 -166 54 -19 3 -47 21 -62 41 -16 22 -37 31 -51 22 -15 -9 -76 38 -163 129 -76 79 -139 133 -139 122 0 -63 -113 81 -173 219 -100 233 -258 1149 -197 1149 11 0 17 -13 13 -30 -15 -68 32 16 55 100 36 128 48 145 124 190 74 44 314 54 618 26 89 -8 128 -6 95 4 -99 30 -476 62 -571 48 -52 -7 -88 -6 -80 2 47 50 334 49 605 -3z m1701 22 c121 -31 250 -112 249 -155 0 -13 -9 -8 -21 11 -125 215 -1118 125 -1118 -102 0 -16 -5 -24 -12 -18 -20 20 11 88 62 140 116 115 599 187 840 124z m702 -24 c59 -48 108 -129 118 -197 5 -32 15 -95 22 -140 8 -53 4 -88 -10 -97 -15 -9 -22 15 -22 73 0 142 -35 228 -121 302 -105 90 -93 145 13 59z m-3085 -36 c-35 -15 -78 -48 -95 -73 -24 -34 -32 -37 -32 -12 0 35 113 116 160 114 17 -1 1 -14 -33 -29z m-478 -104 c7 -19 5 -37 -6 -41 -10 -3 0 -43 22 -89 36 -74 37 -93 15 -186 -22 -89 -20 -116 8 -191 l32 -88 -8 87 c-15 155 5 224 58 199 47 -21 70 -88 70 -206 0 -36 14 -103 30 -150 54 -152 4 -194 -101 -85 -46 47 -50 49 -30 10 29 -58 107 -109 144 -95 29 11 91 -162 67 -186 -63 -64 -305 224 -375 446 -61 190 -64 504 -7 568 46 51 64 53 81 7z m1927 -40 l-24 -62 -45 48 c-64 69 -191 68 -256 -1 l-46 -51 -12 46 c-7 25 -13 51 -13 59 0 11 384 33 415 25 2 -1 -6 -30 -19 -64z m1619 21 c52 -80 47 -353 -10 -537 -100 -324 -458 -656 -382 -354 19 75 27 83 69 73 78 -20 160 87 149 196 -2 19 12 58 31 86 37 56 42 209 9 267 -12 22 -9 43 11 65 23 26 38 102 47 243 2 33 42 12 76 -39z m-3275 14 c0 -11 -36 -20 -80 -20 -44 0 -80 9 -80 20 0 11 36 20 80 20 44 0 80 -9 80 -20z m3080 0 c0 -11 -41 -20 -91 -20 -56 0 -87 8 -79 20 7 11 48 20 91 20 44 0 79 -9 79 -20z m-2324 -65 c-8 -56 -104 -75 -124 -24 -18 48 3 69 71 69 51 0 59 -7 53 -45z m1440 0 c-7 -54 -78 -71 -114 -27 -35 42 -10 72 61 72 51 0 59 -7 53 -45z m932 -32 c-13 -62 -35 -74 -96 -51 -51 20 -38 68 19 68 27 0 56 14 62 31 19 50 28 21 15 -48z m-2583 -24 c-18 -138 56 -219 201 -219 178 0 269 260 100 286 -32 4 -10 9 50 11 259 7 294 -216 54 -343 -240 -127 -707 55 -609 237 68 128 220 148 204 28z m1456 42 c-94 -174 156 -349 309 -216 66 58 88 174 41 222 -32 31 -29 33 40 33 71 0 209 -102 209 -155 0 -28 -143 -165 -208 -199 -161 -84 -455 -27 -581 113 -66 73 47 241 162 241 42 0 45 -5 28 -39z m-2550 -36 c-6 -45 -30 -271 -60 -564 -7 -65 -57 -97 -99 -62 -47 38 -40 174 17 355 28 86 45 174 39 196 -6 25 6 58 32 85 56 60 80 57 71 -10z m426 37 c30 -19 24 -85 -9 -96 -17 -6 -68 72 -68 105 0 15 48 10 77 -9z m3218 -209 c15 -9 25 -57 25 -115 0 -62 -8 -96 -20 -88 -12 7 -20 -17 -20 -61 0 -41 -20 -107 -44 -147 l-43 -72 46 40 47 40 -28 -45 c-70 -115 -153 -72 -111 57 16 48 35 138 42 198 26 221 35 238 106 193z m357 -383 c0 -22 8 -70 17 -107 9 -42 7 -75 -7 -89 -15 -15 -15 -29 1 -48 16 -19 16 -26 -2 -26 -13 0 -18 -8 -12 -19 6 -10 3 -24 -7 -30 -11 -6 -25 -3 -32 9 -18 29 -71 25 -65 -5 3 -14 -5 -23 -16 -21 -13 2 -18 -20 -13 -54 13 -87 -103 -180 -226 -180 -26 0 -53 -9 -60 -20 -7 -11 -3 -20 9 -20 35 0 24 -36 -29 -88 -87 -88 -143 -21 -106 125 17 67 30 81 98 101 44 13 74 33 67 43 -6 10 1 19 15 19 25 0 126 99 126 123 0 6 12 26 27 44 29 34 65 45 61 18 -10 -63 3 -87 31 -59 19 19 29 68 28 140 0 60 5 129 13 153 17 54 79 46 82 -9z m-3911 -57 c-31 -31 -26 -54 9 -40 28 11 42 -27 31 -83 -3 -11 2 -13 11 -5 13 13 108 -105 108 -134 0 -25 74 -83 96 -76 13 5 24 -1 24 -12 0 -11 34 -31 75 -44 95 -31 104 -46 105 -173 0 -164 -125 -214 -151 -61 -8 47 -19 74 -24 60 -4 -14 -17 -25 -27 -25 -27 0 -22 75 7 87 16 6 14 10 -7 11 -20 1 -45 -30 -64 -81 -38 -94 -94 -81 -94 22 0 30 -18 71 -40 91 -29 26 -40 62 -40 131 0 59 -11 103 -30 119 -25 21 -30 17 -30 -28 0 -59 -58 -75 -63 -17 -14 182 -9 225 26 225 11 0 13 -11 5 -25 -10 -19 -7 -18 14 1 17 16 20 31 8 40 -41 29 -28 58 22 48 36 -6 45 -15 29 -31z m2756 -1208 c-15 -19 -49 -55 -77 -80 l-50 -45 -7 43 c-8 49 39 84 154 115 5 1 -4 -14 -20 -33z m-1515 -55 c66 -40 69 -114 4 -86 -60 25 -166 114 -166 139 0 16 108 -19 162 -53z m1338 -33 c0 -38 -63 -97 -102 -97 -19 0 -65 -27 -101 -60 -43 -39 -72 -53 -85 -40 -29 29 -48 24 -61 -16 -20 -62 -229 -115 -233 -59 -1 19 -4 18 -12 -1 -8 -21 -19 -19 -48 8 -35 31 -38 31 -38 1 0 -61 -271 -27 -359 45 -39 31 -68 72 -65 90 3 17 -4 32 -15 32 -12 0 -21 -15 -21 -33 0 -30 -4 -30 -40 3 -74 67 -36 92 74 47 72 -30 106 -38 161 -40 25 -1 51 -10 57 -20 17 -27 90 2 131 51 36 42 36 42 36 -22 1 -35 10 -69 22 -77 13 -8 19 6 17 34 -12 134 2 150 48 57 l44 -90 6 64 c7 66 64 76 64 11 0 -23 14 -27 65 -16 36 8 83 16 105 18 22 2 46 11 54 22 7 10 59 19 115 19 76 0 100 6 92 26 -5 14 3 26 20 26 16 0 29 9 29 20 0 11 9 20 20 20 11 0 20 -11 20 -23z m-1484 -91 l45 -45 -40 -35 c-23 -19 -41 -50 -41 -69 0 -23 -12 -30 -38 -23 -41 10 -71 126 -34 127 12 0 7 9 -11 20 -28 16 -29 27 -10 67 25 53 39 49 129 -42z m246 -130 c43 -24 78 -55 78 -70 0 -38 -81 -32 -112 9 -24 31 -26 27 -15 -31 l12 -65 -62 35 c-73 42 -75 52 -28 117 43 58 34 58 127 5z m1278 -24 c0 -14 -18 -42 -40 -62 -39 -35 -40 -35 -41 12 0 42 -3 44 -21 13 -21 -37 -88 -47 -107 -16 -21 34 130 122 172 99 20 -11 37 -31 37 -46z m-293 -122 c7 -16 35 -30 62 -30 109 0 47 -55 -231 -207 -73 -40 -154 -95 -180 -122 -64 -68 -98 -64 -179 20 -38 40 -129 103 -202 142 -73 38 -153 91 -178 118 l-46 49 45 0 c24 0 61 9 80 19 24 13 67 9 132 -10 138 -41 435 -37 560 9 129 47 124 47 137 12z m42 -196 c-8 -21 -265 -167 -337 -191 -55 -19 50 59 158 117 66 36 129 73 139 82 28 26 51 22 40 -8z"/> <path d="M3610 5039 c-29 -14 -15 -17 55 -12 53 4 102 13 109 20 19 20 -118 13 -164 -8z"/> <path d="M3061 3245 c0 -30 14 -82 30 -115 16 -33 25 -44 19 -23 -5 20 -10 72 -10 115 0 43 -9 78 -20 78 -11 0 -20 -25 -19 -55z"/> <path d="M2831 2527 c-65 -346 -590 -552 -950 -374 -67 33 -121 52 -121 43 0 -36 135 -156 176 -156 23 0 48 -10 56 -23 9 -16 5 -18 -14 -7 -23 13 -24 11 -2 -12 23 -24 31 -23 53 8 19 25 30 28 35 11 10 -29 202 -26 258 4 23 13 37 11 43 -5 4 -13 22 -17 42 -10 20 8 30 22 24 32 -6 10 7 14 29 8 22 -6 40 -1 40 10 0 11 26 27 59 34 32 7 95 39 140 71 44 33 90 59 101 59 11 0 21 9 23 20 7 63 39 121 59 109 10 -6 18 10 18 36 0 26 11 58 24 71 18 18 15 32 -10 60 -19 20 -34 48 -34 61 0 54 -37 17 -49 -50z"/> <path d="M2734 2542 c9 -38 -141 -187 -229 -228 -25 -11 -45 -32 -45 -47 0 -15 -13 -27 -30 -27 -16 0 -30 8 -30 18 0 10 -18 14 -40 8 -22 -6 -34 -20 -26 -32 8 -13 0 -16 -21 -8 -22 8 -39 2 -46 -16 -6 -17 -20 -30 -30 -30 -11 0 -14 9 -7 20 8 12 -26 20 -88 20 -55 0 -105 9 -112 20 -7 11 -34 20 -61 20 -27 0 -49 10 -49 21 0 12 11 15 25 7 14 -7 12 0 -5 17 -139 141 -307 137 -178 -4 248 -271 835 -178 980 156 45 103 45 96 10 109 -19 8 -25 0 -18 -24z"/> <path d="M3193 2487 c-14 -40 17 -294 39 -330 54 -88 53 180 -1 313 -23 56 -25 57 -38 17z"/> <path d="M3338 2385 c118 -218 525 -308 792 -175 87 43 118 70 114 95 -3 20 7 35 23 35 15 0 40 16 55 35 15 19 19 29 10 21 -10 -8 -35 -5 -57 7 -29 15 -36 15 -26 -1 7 -12 0 -22 -18 -22 -17 0 -31 -8 -31 -18 0 -18 -76 -49 -108 -43 -10 2 -42 -20 -72 -49 -32 -30 -66 -46 -85 -39 -17 6 -37 2 -44 -10 -8 -12 -21 -17 -29 -12 -8 5 -46 15 -84 21 -37 7 -104 28 -148 49 -113 51 -158 68 -175 64 -8 -2 -15 6 -15 16 0 11 -13 15 -30 8 -17 -6 -35 3 -42 21 -7 18 -21 32 -31 32 -11 0 -11 -14 1 -35z"/> <path d="M3353 2205 c24 -67 187 -195 187 -146 0 12 10 21 22 21 12 0 17 -15 10 -32 -10 -25 -3 -30 28 -22 22 6 45 3 50 -6 6 -9 33 -14 61 -11 27 3 55 -2 61 -12 6 -10 20 -12 31 -5 10 6 68 13 127 14 59 2 103 10 97 18 -5 9 0 16 12 16 11 0 21 -9 21 -21 0 -33 116 63 127 106 6 21 19 34 30 27 10 -6 24 2 31 20 7 17 5 28 -3 24 -158 -82 -178 -86 -409 -86 -161 0 -242 8 -259 25 -14 14 -39 25 -56 25 -17 1 -53 18 -81 40 -63 49 -103 52 -87 5z"/> <path d="M2683 2009 c-50 -111 -4 -209 99 -209 27 0 82 -18 123 -40 94 -50 151 -50 215 0 28 22 82 39 123 40 104 0 158 92 112 192 -31 70 -61 59 -48 -17 16 -84 -10 -124 -68 -109 -50 13 -106 -10 -173 -71 l-45 -41 -75 58 c-51 39 -100 58 -146 58 -69 0 -70 1 -70 83 0 103 -16 123 -47 56z"/> <path d="M1807 1880 c6 -16 38 -97 70 -180 33 -82 67 -168 75 -190 14 -35 17 -33 23 18 5 32 -1 77 -12 100 -11 23 -25 67 -32 97 -6 30 -39 84 -73 120 -34 36 -57 52 -51 35z"/> <path d="M4175 1845 c-59 -62 -122 -237 -111 -308 5 -36 16 -22 44 63 21 61 59 153 85 205 55 110 53 115 -18 40z"/> <path d="M2580 1670 c-115 -14 -212 -27 -214 -28 -69 -40 -94 -158 -26 -122 41 22 59 -6 20 -30 -45 -28 -17 -66 55 -75 41 -5 161 -25 265 -44 218 -41 565 -33 770 18 66 16 145 30 175 30 68 1 73 46 11 90 -50 35 -24 41 52 12 71 -27 81 5 23 74 -64 76 -468 125 -611 75 -69 -24 -89 -24 -149 1 -79 33 -86 33 -371 -1z m540 -200 c127 4 279 17 338 29 104 20 144 16 116 -12 -89 -89 -883 -99 -1104 -14 -79 30 8 36 204 14 119 -13 320 -21 446 -17z"/> </g> </svg> 