<?xml version="1.0" standalone="no"?>
<!DOCTYPE svg PUBLIC "-//W3C//DTD SVG 20010904//EN"
 "http://www.w3.org/TR/2001/REC-SVG-20010904/DTD/svg10.dtd">
<svg version="1.0" xmlns="http://www.w3.org/2000/svg"
 width="300.000000pt" height="308.000000pt" viewBox="0 0 300.000000 308.000000"
 preserveAspectRatio="xMidYMid meet">
<metadata>
Created by potrace 1.10, written by Peter Selinger 2001-2011
</metadata>
<g transform="translate(0.000000,308.000000) scale(0.100000,-0.100000)"
fill="#000000" stroke="none">
<path d="M1588 3002 c-9 -4 -40 -27 -69 -52 -29 -25 -80 -63 -113 -85 -52 -34
-67 -51 -104 -120 l-43 -80 6 90 c2 50 7 113 11 140 5 42 2 53 -14 69 -30 26
-93 32 -125 12 -35 -24 -44 -55 -51 -175 -4 -58 -9 -107 -11 -110 -3 -2 -16 6
-29 18 -13 12 -39 26 -58 32 -20 5 -51 20 -69 34 -92 68 -162 81 -220 42 -66
-44 -64 -117 4 -151 46 -22 58 -15 29 17 -12 13 -24 36 -28 52 -5 26 -1 33 26
48 29 17 33 18 80 2 28 -9 50 -20 50 -23 0 -12 84 -60 117 -67 20 -4 45 -22
70 -51 72 -86 120 -134 132 -134 8 0 6 10 -7 28 -39 57 -55 120 -47 186 4 33
7 82 6 108 -1 27 5 61 14 78 14 26 21 31 48 28 25 -2 32 -7 31 -23 -2 -24 -21
-138 -30 -177 -5 -21 -3 -28 9 -28 9 0 19 -9 22 -20 3 -11 9 -20 13 -20 4 0
15 -7 25 -14 14 -11 16 -18 8 -33 -31 -54 -40 -94 -29 -121 11 -26 12 -25 19
26 8 60 85 219 128 265 14 16 43 38 64 48 21 11 62 42 92 69 43 39 63 50 89
50 38 0 61 -21 52 -46 -4 -9 -9 -14 -13 -10 -4 3 -17 -4 -30 -16 -13 -12 -23
-18 -23 -14 0 5 -14 -6 -32 -23 -17 -17 -35 -31 -39 -31 -3 0 -24 -14 -45 -31
-38 -30 -39 -31 -9 -23 26 6 28 5 17 -8 -7 -9 -10 -26 -7 -40 5 -20 -1 -29
-34 -53 -23 -15 -50 -42 -60 -59 -11 -17 -29 -41 -41 -53 -20 -22 -20 -23 -2
-23 10 0 24 11 30 24 23 50 76 97 160 139 48 25 110 57 138 71 34 18 83 32
150 41 54 8 128 21 164 29 110 26 162 18 179 -27 7 -17 3 -30 -17 -56 -14 -19
-25 -45 -24 -58 2 -22 -2 -23 -61 -23 -112 0 -286 -53 -370 -112 -48 -34 -22
-31 52 6 40 20 82 38 94 40 12 2 51 11 87 19 94 22 230 31 277 18 21 -6 79
-12 127 -12 101 -2 116 -11 116 -70 0 -29 -4 -39 -16 -39 -8 0 -12 5 -9 10 4
6 3 9 -2 8 -4 -1 -17 3 -28 9 -31 17 -240 31 -335 22 -47 -5 -101 -6 -120 -4
l-35 5 33 -15 c41 -19 62 -20 145 -6 37 6 89 9 115 7 72 -7 210 -37 231 -51
11 -6 34 -55 31 -63 -3 -9 73 -42 96 -42 17 0 44 -18 85 -57 32 -31 59 -59 59
-62 0 -3 -17 -25 -38 -48 l-37 -41 -75 69 c-75 70 -171 126 -192 113 -6 -4 9
-14 34 -24 67 -25 198 -130 258 -204 45 -58 51 -69 43 -93 -11 -32 -33 -43
-33 -16 0 10 -22 33 -50 53 -27 19 -50 41 -50 48 0 7 -8 12 -18 10 -11 -2 -19
1 -19 5 -1 12 -55 67 -65 67 -33 0 34 -76 137 -156 96 -74 205 -187 225 -232
27 -61 26 -65 -19 -59 -41 5 -73 -9 -99 -45 -18 -25 -31 -22 -43 10 -26 70
-61 132 -70 126 -7 -4 -7 -10 0 -17 6 -6 11 -18 11 -26 0 -8 20 -49 45 -92 32
-56 45 -89 45 -117 0 -21 9 -58 21 -81 12 -26 18 -53 15 -67 -6 -22 -53 -74
-68 -74 -8 0 -28 67 -28 95 0 17 2 17 10 5 5 -8 10 -10 10 -5 0 14 -49 70 -55
63 -3 -3 2 -21 10 -41 8 -20 21 -63 29 -96 12 -53 12 -64 -5 -112 -10 -30 -21
-80 -25 -112 -4 -34 -12 -61 -20 -64 -7 -3 -22 -19 -32 -37 -17 -29 -18 -37
-6 -76 16 -54 6 -74 -41 -90 -41 -14 -55 -35 -55 -84 0 -45 -31 -67 -100 -74
-40 -4 -55 -11 -80 -38 -38 -42 -64 -44 -80 -5 -6 16 -20 37 -31 47 -23 21
-23 32 -2 107 16 58 17 59 46 53 22 -4 42 1 74 19 23 14 43 30 43 36 0 5 9 19
19 30 55 59 121 248 121 346 0 62 -21 113 -62 147 -41 35 -46 46 -24 46 16 0
86 -75 86 -92 0 -6 3 -9 6 -5 12 11 -37 96 -59 103 -12 4 -24 6 -26 5 -10 -6
-21 29 -21 69 0 25 -4 51 -9 58 -5 8 -10 -48 -13 -135 -5 -152 -14 -187 -49
-196 -9 -3 -23 -1 -30 4 -12 7 -12 9 0 9 8 0 11 3 7 8 -4 4 -13 7 -19 7 -7 0
-13 8 -15 17 -2 12 7 19 40 25 37 7 43 12 43 33 0 21 -5 26 -32 28 -36 4 -34
-2 -39 107 -2 33 -5 76 -8 95 -2 19 -5 46 -5 59 -1 13 -4 21 -8 18 -16 -16
-51 71 -68 166 -6 36 -5 38 14 27 14 -7 21 -7 21 0 0 5 -6 10 -14 10 -8 0 -25
12 -38 28 -39 45 -104 84 -142 85 -28 1 -36 5 -36 19 0 20 -41 110 -89 196
-16 31 -48 67 -73 85 -23 17 -44 35 -46 39 -2 5 -10 8 -17 8 -7 0 -15 5 -17
12 -5 15 -104 47 -149 47 -31 1 -79 -19 -157 -63 -34 -20 -86 -85 -93 -117 -9
-39 -3 -36 21 10 44 86 160 149 256 137 65 -7 99 -23 171 -78 64 -48 110 -116
152 -224 34 -86 37 -120 10 -137 -25 -16 -69 16 -69 49 0 14 -4 23 -8 20 -5
-3 -16 4 -25 15 -18 21 10 19 -437 24 -96 1 -189 4 -205 8 -17 3 -58 -1 -90
-9 -33 -9 -68 -16 -77 -17 -13 -1 -19 -14 -24 -55 -3 -29 -4 -55 -1 -59 11
-11 -18 -29 -40 -25 -37 7 -48 30 -47 98 3 121 46 243 106 301 19 18 53 37 81
45 44 11 52 11 85 -7 20 -11 47 -38 59 -60 13 -22 23 -34 23 -26 0 47 -74 121
-123 121 -76 0 -181 -80 -209 -158 -12 -32 -15 -34 -50 -29 -25 3 -38 1 -42
-9 -3 -7 -11 -11 -19 -8 -19 7 -67 -13 -67 -28 0 -9 3 -9 12 0 7 7 17 12 22
12 6 0 -7 -12 -29 -27 -22 -15 -47 -26 -56 -25 -17 3 -146 -133 -141 -149 1
-5 -15 -35 -37 -67 -47 -70 -74 -122 -67 -129 3 -3 11 7 18 23 37 87 166 248
239 299 8 6 31 21 51 35 21 14 38 30 38 36 0 7 10 12 23 12 12 -1 36 3 54 7
l31 7 -11 -43 c-6 -24 -18 -50 -26 -57 -14 -11 -14 -11 0 -6 27 9 25 -97 -1
-121 -11 -10 -20 -14 -20 -9 0 5 -9 -6 -20 -24 -11 -18 -19 -36 -19 -40 1 -4
0 -18 -1 -32 -2 -20 -3 -21 -7 -6 -4 15 -7 16 -13 5 -5 -7 -4 -21 1 -31 10
-19 7 -39 -16 -93 -7 -16 -18 -43 -24 -60 -8 -18 -11 -69 -10 -135 3 -105 3
-105 -21 -102 -13 2 -34 -2 -47 -9 -31 -16 -42 -2 -44 56 -2 36 -3 37 -6 8 -3
-23 -12 -34 -32 -43 -97 -40 -85 -297 20 -450 75 -110 92 -125 142 -125 l46 0
19 -65 20 -65 -24 -13 c-13 -7 -26 -25 -30 -40 -17 -81 -44 -92 -110 -42 -28
21 -50 30 -80 30 -49 0 -64 15 -71 67 -6 55 -21 80 -59 98 -42 20 -48 29 -46
77 1 22 -5 52 -13 69 -9 16 -13 29 -9 29 4 0 1 7 -6 15 -9 11 -11 34 -6 78 3
34 2 56 -3 49 -6 -10 -15 -8 -38 12 -17 14 -38 26 -47 26 -8 0 -18 11 -22 25
-5 19 8 55 50 139 31 63 56 118 57 123 0 4 16 28 34 53 19 25 42 58 50 73 15
26 15 27 -2 16 -18 -11 -83 -93 -83 -105 0 -3 -11 -19 -24 -35 -15 -18 -23
-37 -20 -51 2 -13 2 -17 -2 -10 -8 17 -17 15 -31 -7 -10 -16 -9 -18 7 -14 15
4 18 1 13 -16 -10 -39 -53 -53 -53 -18 0 7 -10 17 -22 22 -44 19 -32 70 35
142 23 24 27 35 19 45 -6 8 -13 26 -16 42 -7 40 -26 58 -53 53 l-23 -4 25 33
c41 53 28 50 -17 -5 -24 -28 -50 -51 -59 -51 -20 0 -39 20 -39 42 0 30 43 96
80 120 19 13 40 34 46 46 17 34 55 72 72 72 15 0 102 47 102 55 0 2 -16 -3
-35 -11 -33 -13 -35 -13 -35 4 0 11 -9 29 -19 41 -12 13 -17 30 -14 39 6 14 4
15 -9 4 -22 -17 -48 -4 -48 24 0 29 87 96 149 115 24 7 37 15 30 20 -7 4 -10
20 -7 39 3 21 0 34 -9 37 -20 8 -15 40 9 57 43 30 235 9 383 -42 42 -14 119
-31 123 -27 2 2 -16 9 -40 15 -23 7 -57 18 -74 25 -17 7 -77 24 -133 36 -97
22 -102 24 -96 46 3 13 0 33 -6 44 -10 19 -9 20 11 14 15 -5 20 -4 16 4 -4 6
-23 11 -42 11 -19 0 -34 5 -34 10 0 7 -6 7 -19 1 -23 -13 -31 -5 -31 30 0 38
18 42 170 31 144 -11 212 -34 303 -101 31 -22 58 -41 61 -41 2 0 -2 13 -10 30
-10 18 -20 27 -29 23 -8 -3 -15 -1 -15 4 0 14 -113 67 -185 88 -33 9 -62 21
-65 26 -3 4 -49 14 -102 20 -110 14 -147 5 -167 -37 -29 -65 -2 -124 59 -124
44 0 70 -8 70 -21 0 -5 -32 -9 -71 -9 -100 0 -138 -24 -139 -89 0 -22 8 -43
22 -58 l21 -23 -22 0 c-29 0 -53 -13 -123 -67 -51 -39 -58 -48 -58 -79 0 -44
45 -94 84 -94 36 0 32 -17 -8 -34 -18 -8 -42 -26 -52 -42 -11 -15 -42 -50 -70
-78 -66 -64 -81 -90 -89 -147 -7 -44 -5 -48 27 -72 51 -39 83 -44 110 -15 13
13 28 33 35 44 9 15 11 9 6 -35 -5 -41 -16 -68 -45 -110 -46 -66 -50 -110 -13
-146 13 -14 33 -25 45 -25 24 0 24 2 0 -51 -11 -24 -20 -54 -20 -67 0 -31 42
-68 86 -77 l36 -6 -6 -44 c-7 -47 9 -100 37 -123 12 -10 14 -19 6 -38 -5 -14
-9 -34 -9 -44 0 -29 42 -71 79 -78 32 -7 33 -8 34 -64 2 -48 7 -62 29 -85 28
-27 75 -35 111 -19 12 6 17 4 17 -6 0 -27 39 -51 89 -56 41 -4 52 -1 71 18 19
19 21 28 15 73 l-6 52 22 -35 c13 -19 35 -60 49 -90 15 -30 46 -79 69 -108 24
-30 41 -55 39 -56 -1 -1 -16 -6 -33 -11 -25 -9 -34 -20 -51 -70 -12 -33 -28
-77 -38 -97 -9 -21 -16 -46 -16 -56 0 -14 -17 -22 -92 -40 -114 -27 -158 -55
-192 -123 -33 -68 -34 -89 -1 -89 19 0 25 5 25 20 0 28 23 70 52 97 22 20 72
39 164 62 40 11 84 49 84 74 0 7 11 33 25 59 14 26 25 56 25 68 0 11 13 33 29
49 16 15 36 39 45 53 16 24 15 26 -29 83 -71 92 -54 112 25 30 72 -75 235
-148 357 -159 49 -5 53 -4 85 32 l33 37 37 -37 c31 -30 43 -36 70 -33 70 9
113 18 123 25 6 4 27 13 48 19 20 7 37 16 37 21 0 4 12 10 28 13 38 8 120 64
127 88 4 10 10 19 15 19 5 0 21 11 36 25 25 23 44 32 44 20 0 -9 -51 -88 -76
-118 -13 -16 -24 -36 -24 -45 0 -9 23 -38 50 -63 40 -36 50 -52 50 -77 0 -18
4 -32 9 -32 9 0 29 -42 36 -77 7 -40 46 -69 110 -83 33 -7 74 -19 90 -27 42
-21 82 -70 90 -110 5 -26 11 -33 30 -33 24 0 24 0 10 45 -29 99 -79 140 -199
163 -82 16 -85 18 -89 47 -4 28 -33 105 -61 165 -6 14 -31 35 -54 48 l-42 23
40 47 c21 26 58 88 82 137 l43 90 3 -40 c5 -55 25 -75 78 -75 46 0 70 17 80
55 5 20 10 22 42 18 42 -5 98 15 126 46 15 16 18 31 14 70 l-5 49 33 -5 c26
-4 38 0 58 20 30 30 33 62 11 114 -18 44 -19 53 -2 53 29 0 56 45 63 105 4 33
15 82 25 108 11 26 19 56 19 67 0 10 9 21 20 25 54 17 80 116 43 171 -9 14
-16 42 -15 64 1 22 -3 51 -8 66 -15 39 6 60 43 43 32 -14 70 -5 97 23 21 23
27 72 10 83 -6 4 -17 22 -25 41 -8 19 -40 62 -71 94 -53 55 -56 62 -46 85 15
33 1 69 -46 118 -27 28 -32 37 -19 37 27 0 67 46 67 75 0 18 -19 48 -61 96
-49 55 -69 70 -98 74 -73 12 -81 15 -87 39 -3 13 -1 39 4 58 11 40 -3 82 -37
112 -17 15 -40 20 -117 23 -53 2 -122 7 -153 11 l-56 7 38 22 c48 29 64 62 48
102 -33 79 -111 99 -242 62 -40 -11 -114 -25 -162 -31 -98 -12 -152 -30 -212
-70 -52 -35 -106 -63 -111 -57 -6 5 97 82 160 119 71 42 83 105 29 148 -26 20
-81 26 -115 12z m-484 -354 c10 -38 7 -42 -14 -15 -24 30 -25 37 -6 37 7 0 16
-10 20 -22z m165 -553 c66 -12 102 -13 163 -5 44 5 148 7 234 3 l156 -6 23
-54 c27 -61 58 -79 102 -62 32 12 43 26 43 57 0 27 10 28 61 2 57 -29 96 -89
105 -158 3 -31 17 -78 30 -104 19 -36 24 -64 24 -120 1 -40 5 -92 9 -115 9
-48 3 -53 -25 -22 -10 12 -36 30 -57 41 -22 11 -62 36 -90 56 l-52 37 -120 -1
c-66 0 -144 -6 -173 -13 -45 -11 -56 -19 -70 -47 -12 -25 -13 -37 -5 -45 16
-16 44 -4 37 15 -9 22 17 43 62 50 69 12 247 15 266 5 31 -17 20 -26 -34 -28
-72 -2 -160 -18 -238 -44 -55 -18 -88 -22 -215 -21 -129 0 -159 3 -214 23 -37
13 -115 27 -185 34 l-120 12 30 19 c27 18 38 19 166 9 144 -10 171 -20 166
-57 -2 -15 3 -22 20 -24 18 -3 22 1 22 26 0 60 -48 79 -229 88 l-126 7 -66
-46 c-37 -25 -82 -53 -100 -62 -19 -10 -44 -27 -56 -38 l-23 -20 0 94 c0 80 5
110 34 199 19 58 42 131 52 163 18 57 34 75 34 37 0 -50 71 -77 118 -44 18 13
22 24 22 74 0 63 6 71 69 91 38 11 57 10 150 -6z m-35 -561 c73 -15 128 -38
146 -59 6 -7 13 -30 16 -52 l4 -38 -13 33 c-24 64 -40 69 -215 67 -189 -2
-217 -11 -257 -80 l-28 -46 44 -46 c67 -68 123 -93 212 -93 80 0 140 23 206
80 39 33 38 52 -4 114 -14 21 -23 41 -20 44 11 11 39 -14 46 -42 16 -60 45
-71 85 -31 15 15 36 25 54 25 17 0 40 -10 56 -25 41 -38 65 -30 79 27 4 15 13
33 21 39 28 23 26 -2 -4 -60 l-32 -59 45 -36 c68 -56 119 -76 201 -76 85 0
153 30 208 91 42 46 43 55 14 99 -47 69 -58 72 -242 75 -152 2 -169 1 -191
-17 -14 -11 -29 -34 -34 -51 -8 -29 -9 -29 -10 -7 -2 50 33 87 101 108 87 27
236 46 304 39 82 -8 162 -51 181 -94 8 -20 11 -43 8 -52 -5 -11 -11 -2 -21 30
-12 41 -20 50 -61 70 -40 19 -64 23 -143 23 -97 0 -233 -19 -260 -36 -11 -7
-10 -7 6 -3 12 3 59 10 105 15 220 26 333 -2 341 -83 2 -23 11 -35 31 -45 17
-8 27 -21 27 -34 0 -56 -36 -229 -92 -447 -31 -123 -51 -171 -71 -171 -7 0
-21 -16 -31 -35 -19 -34 -36 -46 -36 -24 0 6 -30 -21 -67 -60 -63 -67 -100
-90 -87 -56 9 23 -8 18 -36 -12 -30 -31 -87 -57 -165 -73 -53 -11 -60 -10 -84
8 -27 20 -28 28 -17 72 7 24 5 25 -44 25 l-50 0 6 -42 c5 -37 3 -43 -20 -58
-23 -16 -34 -16 -88 -5 -33 6 -84 22 -112 34 -28 13 -56 21 -62 19 -6 -2 -19
8 -29 23 -13 20 -19 23 -25 13 -6 -9 -27 6 -79 59 -47 47 -71 66 -71 54 0 -13
-6 -10 -25 13 -46 56 -74 129 -111 290 -54 235 -63 284 -64 342 0 55 16 82 22
36 3 -23 6 -17 21 32 25 81 29 87 68 110 37 22 145 27 304 13 51 -4 69 -3 51
2 -52 16 -229 28 -288 20 -89 -13 -138 -51 -138 -110 0 -11 -4 -20 -10 -20
-14 0 -12 25 4 65 16 38 70 70 139 85 52 11 190 3 281 -16z m345 -50 c8 -7
-143 -2 -174 6 -16 4 15 5 70 2 55 -3 102 -6 104 -8z m-935 -21 c4 -9 1 -20
-6 -25 -10 -6 -10 -10 -1 -16 26 -16 35 -65 23 -117 -9 -40 -8 -59 3 -95 l14
-45 -1 72 c-1 39 2 74 6 78 3 4 15 2 26 -4 21 -11 28 -33 36 -112 3 -25 10
-58 16 -73 15 -42 13 -66 -8 -66 -19 0 -55 34 -65 60 -4 10 -6 8 -6 -7 -1 -27
55 -76 78 -68 13 4 20 -5 29 -41 7 -26 10 -49 7 -52 -16 -16 -65 20 -113 83
-65 86 -92 167 -99 290 -4 78 -2 94 16 123 23 36 36 40 45 15z m976 13 c0 -2
-6 -18 -14 -36 -13 -32 -14 -33 -25 -12 -6 12 -17 22 -23 22 -7 0 -7 -4 0 -12
8 -10 -1 -12 -44 -10 -30 2 -52 8 -48 13 3 5 1 9 -5 9 -6 0 -16 -10 -22 -22
-11 -21 -12 -21 -24 8 l-12 29 101 6 c56 3 104 6 109 7 4 1 7 0 7 -2z m795
-20 c37 -56 23 -244 -25 -335 -41 -80 -108 -159 -140 -166 -17 -4 -33 -5 -36
-2 -6 5 31 162 43 179 4 7 12 53 18 103 10 86 11 90 35 90 24 0 25 -3 28 -60
l2 -60 -20 25 c-11 14 -20 20 -20 13 0 -6 5 -15 10 -18 17 -10 11 -63 -11
-108 l-22 -42 23 20 23 20 -14 -23 c-8 -13 -27 -26 -42 -29 -20 -4 -25 -9 -18
-16 18 -18 60 10 77 50 9 21 21 47 27 58 9 18 8 19 -6 6 -21 -17 -22 -2 -2 25
17 23 20 115 3 132 -8 8 -8 15 0 24 17 21 41 98 31 103 -10 7 0 35 12 35 5 0
16 -11 24 -24z m-1625 5 c0 -16 -15 -20 -53 -14 -52 8 -46 23 8 23 25 0 45 -4
45 -9z m1540 0 c0 -4 -17 -11 -37 -15 -55 -9 -63 -8 -63 9 0 11 12 15 50 15
28 0 50 -4 50 -9z m-1613 -31 c14 0 23 -6 23 -16 0 -13 2 -13 17 2 12 12 18
13 21 4 5 -14 -13 -35 -31 -35 -11 -1 -11 -6 0 -47 3 -10 1 -18 -4 -18 -14 0
-53 48 -53 64 0 8 -4 18 -10 21 -5 3 -10 16 -10 28 0 16 3 18 12 9 7 -7 22
-12 35 -12z m441 -2 c-4 -28 -39 -36 -57 -14 -18 21 -5 36 30 36 26 0 30 -3
27 -22z m134 1 c10 -5 27 -27 38 -49 l20 -39 -28 -26 c-74 -71 -182 -93 -270
-55 -52 23 -112 78 -112 105 0 31 44 66 90 72 37 5 43 3 33 -8 -16 -16 -17
-60 -2 -92 20 -45 102 -63 145 -32 33 22 49 71 35 101 -13 30 -33 22 -25 -10
8 -32 -30 -76 -67 -76 -32 0 -69 30 -69 56 0 11 8 7 29 -14 32 -36 66 -34 83
4 8 18 7 29 -5 47 -9 14 -13 28 -9 32 8 8 90 -3 114 -16z m586 -1 c-4 -29 -34
-35 -59 -12 -23 21 -10 34 34 34 24 0 28 -4 25 -22z m149 -4 c13 -8 30 -25 39
-39 16 -24 15 -27 -10 -59 -14 -19 -51 -47 -81 -61 -89 -44 -189 -28 -275 43
-37 32 -36 51 7 102 17 21 34 30 54 30 26 0 28 -2 19 -19 -31 -59 17 -131 88
-131 67 0 116 60 97 120 -10 32 -22 23 -28 -22 -7 -49 -27 -68 -73 -68 -23 0
-38 7 -48 22 -27 38 -17 50 13 16 27 -31 30 -32 55 -19 33 18 42 46 22 76 -15
23 -15 24 12 27 38 6 83 -2 109 -18z"/>
<path d="M1538 1580 c2 -17 9 -33 15 -37 7 -4 8 0 4 11 -4 10 -7 26 -7 37 0
10 -4 19 -8 19 -5 0 -7 -14 -4 -30z"/>
<path d="M1417 1282 c-20 -135 -154 -234 -317 -235 -87 -1 -143 13 -194 48
-40 27 -50 17 -11 -13 39 -31 235 -74 235 -51 0 5 19 9 43 9 24 0 56 8 75 20
17 11 32 17 32 14 0 -9 72 45 93 70 39 46 58 96 55 144 l-3 47 -8 -53z"/>
<path d="M1377 1284 c-4 -4 -7 -14 -7 -22 0 -8 -11 -30 -25 -48 -14 -18 -25
-37 -25 -43 0 -6 -33 -26 -74 -46 -64 -31 -83 -35 -149 -35 -42 0 -88 5 -104
11 -15 6 -30 11 -33 11 -12 1 -67 44 -87 67 -11 14 -24 23 -28 20 -11 -12 62
-79 111 -101 70 -33 207 -32 282 1 47 21 144 110 140 129 -1 4 2 15 6 24 9 20
4 43 -7 32z"/>
<path d="M1630 1275 c0 -26 36 -88 72 -122 56 -54 121 -77 218 -78 75 0 92 4
145 30 60 30 108 80 120 125 6 22 4 21 -13 -6 -11 -18 -25 -35 -31 -39 -6 -3
-9 -10 -6 -15 3 -5 -9 -16 -27 -25 -18 -10 -46 -25 -63 -34 -22 -12 -56 -16
-125 -16 -83 0 -102 3 -150 27 -30 15 -49 27 -42 28 6 0 12 4 12 9 0 5 -7 8
-16 7 -21 -1 -87 91 -80 110 3 8 1 14 -4 14 -6 0 -10 -7 -10 -15z"/>
<path d="M820 1256 c0 -9 4 -16 10 -16 5 0 7 -7 4 -15 -4 -8 -1 -15 5 -15 16
0 14 29 -4 46 -13 14 -15 14 -15 0z"/>
<path d="M1602 1205 c0 -73 9 -117 25 -122 15 -5 6 110 -13 152 -12 29 -12 28
-12 -30z"/>
<path d="M1655 1147 c4 -9 11 -17 16 -17 5 0 9 -6 9 -13 0 -15 40 -42 59 -38
7 1 10 -2 7 -7 -3 -5 32 -17 78 -27 135 -28 262 -2 322 66 15 18 9 16 -26 -8
-65 -43 -124 -56 -227 -51 -95 5 -158 30 -216 86 -19 18 -26 21 -22 9z"/>
<path d="M1342 1000 c-16 -27 -15 -51 4 -79 13 -18 23 -22 46 -17 23 5 37 0
60 -19 38 -32 78 -32 108 0 19 21 29 24 61 19 31 -5 39 -3 48 14 12 23 14 62
5 86 -12 30 -23 16 -21 -26 l2 -43 -41 -3 c-28 -2 -49 -11 -64 -28 -29 -30
-45 -30 -82 1 -20 17 -42 25 -68 25 -44 0 -57 20 -41 64 12 31 1 35 -17 6z"/>
<path d="M900 947 c0 -4 7 -18 15 -30 20 -31 55 -135 55 -164 0 -12 5 -23 10
-23 15 0 12 30 -11 104 -18 57 -68 139 -69 113z"/>
<path d="M2093 928 c-26 -29 -49 -82 -58 -139 -9 -55 7 -42 24 21 7 25 24 66
37 93 13 26 22 47 20 47 -1 0 -12 -10 -23 -22z"/>
<path d="M1293 835 c-109 -12 -143 -29 -143 -69 0 -15 3 -17 12 -8 7 7 19 12
27 12 11 0 10 -4 -4 -20 -11 -12 -15 -24 -9 -29 14 -13 186 -42 282 -48 48 -3
119 0 157 5 236 36 252 42 203 76 -31 22 -16 30 21 11 27 -13 31 -13 31 -1 0
8 -10 26 -22 40 -20 21 -35 25 -108 30 -47 4 -98 9 -115 12 -16 3 -49 -2 -72
-10 -38 -13 -47 -13 -78 -1 -39 17 -44 17 -182 0z m344 -29 c119 0 150 -2 146
-12 -3 -7 -26 -16 -51 -20 -55 -9 -286 -11 -424 -4 -82 4 -96 7 -84 18 8 8 46
15 97 18 46 3 85 7 87 8 1 2 19 0 40 -3 20 -4 105 -6 189 -5z m-312 -61 c153
-17 346 -12 444 12 17 4 22 2 19 -8 -18 -54 -548 -55 -566 0 -3 10 3 12 24 8
16 -3 52 -9 79 -12z"/>
<path d="M1390 601 c0 -14 47 -22 78 -14 l27 7 -25 7 c-36 10 -80 10 -80 0z"/>
<path d="M1542 601 c-10 -6 -8 -10 9 -14 27 -7 69 1 69 14 0 11 -61 11 -78 0z"/>
<path d="M1920 2719 c0 -7 -49 -22 -75 -24 -5 -1 -34 -9 -63 -19 -29 -10 -56
-15 -59 -12 -9 8 25 34 62 46 l30 10 -34 -5 c-19 -3 -42 -12 -51 -20 -8 -8
-47 -30 -85 -49 -72 -36 -188 -137 -167 -144 7 -2 31 15 54 38 50 50 110 81
198 105 172 47 210 55 280 62 l75 8 -50 5 c-27 3 -58 2 -69 -3 -12 -6 -16 -5
-12 1 4 6 -2 10 -14 9 -11 -1 -20 -4 -20 -8z"/>
<path d="M2143 2452 c10 -10 17 -27 17 -37 0 -10 3 -15 8 -11 4 4 7 21 7 37 0
24 -4 29 -24 29 -23 0 -23 -1 -8 -18z"/>
<path d="M1936 2445 c18 -14 18 -14 -11 -16 -22 0 -16 -4 25 -13 88 -20 208
-102 373 -256 43 -40 81 -70 84 -66 4 3 16 -2 27 -11 12 -10 -15 18 -59 61
-44 43 -94 87 -111 99 -18 12 -57 39 -88 61 -32 22 -55 44 -52 51 5 14 -160
105 -190 105 -16 0 -16 -1 2 -15z"/>
<path d="M1475 2330 c-39 -26 -25 -26 17 0 18 11 29 20 23 20 -5 0 -23 -9 -40
-20z"/>
<path d="M483 2333 c9 -2 25 -2 35 0 9 3 1 5 -18 5 -19 0 -27 -2 -17 -5z"/>
<path d="M1920 2325 c0 -2 18 -14 40 -25 22 -11 40 -18 40 -15 0 2 -18 14 -40
25 -22 11 -40 18 -40 15z"/>
<path d="M694 2311 c4 -6 2 -19 -5 -27 -10 -12 -28 -14 -83 -11 -39 3 -80 1
-91 -4 -14 -5 -5 -7 28 -4 27 2 63 -1 80 -6 26 -7 41 -5 75 12 39 20 55 39 33
39 -5 0 -17 3 -27 7 -12 4 -15 3 -10 -6z"/>
<path d="M2282 2300 c7 -23 53 -42 83 -34 20 5 23 9 14 15 -8 4 -24 6 -37 2
-15 -3 -30 1 -44 13 -16 14 -20 15 -16 4z"/>
<path d="M2016 2227 c3 -7 27 -23 55 -36 62 -31 78 -42 156 -115 35 -33 64
-68 64 -80 1 -15 3 -12 8 9 6 23 3 35 -13 53 -10 12 -26 22 -33 22 -8 0 -12 4
-8 9 3 6 -32 34 -77 63 -96 62 -160 93 -152 75z"/>
<path d="M602 2199 c-18 -16 -37 -27 -42 -24 -6 3 -7 -1 -4 -10 4 -9 -2 -25
-11 -35 -10 -11 -15 -20 -12 -20 8 0 117 105 117 113 0 14 -15 6 -48 -24z"/>
<path d="M832 2109 c-38 -25 -38 -29 0 -22 14 3 28 13 31 24 3 10 4 19 4 19
-1 0 -17 -10 -35 -21z"/>
<path d="M2350 2016 c0 -3 7 -12 16 -20 23 -23 40 -19 19 4 -16 18 -35 26 -35
16z"/>
<path d="M716 1930 c-16 -33 -28 -61 -25 -63 2 -2 18 25 35 60 18 34 29 63 25
63 -3 0 -19 -27 -35 -60z"/>
<path d="M2265 1961 c-6 -5 -18 -11 -27 -13 -11 -2 -15 -8 -10 -15 6 -9 16 -6
37 12 17 13 25 24 20 25 -6 0 -15 -4 -20 -9z"/>
<path d="M2470 1946 c0 -4 9 -15 20 -24 24 -21 91 -173 98 -224 5 -41 32 -54
32 -15 0 33 -93 218 -124 246 -14 14 -26 21 -26 17z"/>
<path d="M2670 1913 c0 -6 12 -37 27 -69 20 -45 28 -54 33 -39 6 17 8 17 28
-5 12 -13 22 -20 22 -15 0 6 -46 65 -102 130 -5 5 -8 5 -8 -2z"/>
<path d="M2407 1858 c12 -13 37 -58 57 -100 20 -42 41 -80 46 -83 13 -8 -7 38
-37 87 -13 21 -23 41 -23 45 0 12 -45 73 -54 73 -5 0 0 -10 11 -22z"/>
<path d="M673 1833 c-3 -10 -8 -22 -10 -28 -3 -5 3 -1 11 9 16 20 21 36 11 36
-3 0 -8 -8 -12 -17z"/>
<path d="M580 1821 c-12 -24 -13 -34 -1 -27 9 6 22 46 15 46 -2 0 -8 -9 -14
-19z"/>
<path d="M760 1810 c-7 -17 -10 -33 -8 -36 3 -3 11 9 17 27 14 42 7 49 -9 9z"/>
<path d="M2351 1753 c-1 -17 4 -35 9 -38 11 -7 11 9 0 45 -8 24 -8 24 -9 -7z"/>
<path d="M646 1715 c-3 -9 -5 -38 -5 -63 l1 -47 9 59 c9 60 7 81 -5 51z"/>
<path d="M737 1723 c-4 -3 -6 -45 -6 -92 l2 -86 8 90 c8 91 7 100 -4 88z"/>
<path d="M393 1695 c-15 -13 -23 -25 -17 -25 6 0 21 11 34 25 30 32 19 32 -17
0z"/>
<path d="M421 1412 c-6 -12 -11 -27 -11 -34 1 -7 8 0 16 15 9 16 13 31 11 34
-3 2 -10 -4 -16 -15z"/>
<path d="M432 1309 c-7 -23 -11 -43 -8 -46 6 -6 28 65 24 77 -2 6 -9 -8 -16
-31z"/>
<path d="M1158 380 c-21 -13 -49 -67 -42 -83 6 -15 69 -57 86 -57 6 0 1 11
-12 25 -13 14 -29 25 -37 25 -19 0 -16 21 7 48 l19 24 41 -23 c45 -26 53 -49
15 -49 -16 0 -25 6 -25 15 0 8 -4 15 -10 15 -14 0 -13 -12 10 -63 11 -25 35
-58 54 -73 75 -64 107 -88 143 -106 21 -10 50 -26 65 -34 25 -13 33 -13 79 0
52 16 166 75 200 104 11 9 19 22 19 29 0 24 41 81 63 87 12 3 30 17 40 31 16
22 16 27 3 54 -18 35 -44 43 -94 28 -36 -11 -54 -28 -58 -55 -3 -17 -14 -29
-14 -15 0 6 -26 3 -67 -8 -83 -23 -214 -25 -273 -4 -24 8 -52 13 -62 9 -12 -4
-21 2 -29 18 -21 45 -88 78 -121 58z m696 -47 c4 -10 -1 -25 -14 -37 l-20 -20
0 24 c-1 22 -2 23 -11 8 -11 -20 -59 -24 -59 -5 0 15 48 45 76 46 12 1 25 -7
28 -16z m-144 -68 c0 -11 11 -15 37 -15 34 0 35 -1 19 -18 -9 -11 -57 -41
-107 -68 -50 -27 -106 -64 -125 -83 l-34 -35 -48 46 c-26 25 -75 60 -109 78
-34 17 -71 43 -84 56 l-22 24 29 0 c17 0 34 4 39 9 6 6 31 4 65 -5 77 -20 213
-18 275 5 65 24 65 24 65 6z m34 -90 c-7 -16 -184 -118 -192 -110 -7 7 22 28
73 54 22 11 58 32 80 45 48 30 46 30 39 11z"/>
</g>
</svg>
